# xmcd CD database file
#
# Track frame offsets:
#	187
#	23102
#	46645
#
# Disc length: 924 seconds
#
# Revision: 0
# Processed by: cddbd v1.5PL3 Copyright (c) Steve Scherf et al.
# Submitted via: CDex 1.50beta9
#
DISCID=16039a03
DTITLE=シャ乱Q - NICE BOY!
DYEAR=1900
DGENRE=JPop
TTITLE0=NICE BOY!
TTITLE1=SWEET and SWEET
TTITLE2=NICE BOY!(オリジナル・カラオケ)
EXTD=
EXTT0=
EXTT1=
EXTT2=
PLAYORDER=
